<!DOCTYPE svg PUBLIC "-//W3C//DTD SVG 1.1//EN" "http://www.w3.org/Graphics/SVG/1.1/DTD/svg11.dtd">
<!-- Uploaded to: SVG Repo, www.svgrepo.com, Transformed by: SVG Repo Mixer Tools -->
<svg fill="#f0e033" height="800px" width="800px" version="1.1" id="Layer_1" xmlns="http://www.w3.org/2000/svg" xmlns:xlink="http://www.w3.org/1999/xlink" viewBox="0 0 512 512" xml:space="preserve" stroke="#f0e033">
<g id="SVGRepo_bgCarrier" stroke-width="0"/>
<g id="SVGRepo_tracerCarrier" stroke-linecap="round" stroke-linejoin="round"/>
<g id="SVGRepo_iconCarrier"> <g> <g> <g> <path d="M503.467,477.867H8.533C3.814,477.867,0,481.69,0,486.4v17.067C0,508.177,3.814,512,8.533,512s8.533-3.823,8.533-8.533 v-8.533h477.867v8.533c0,4.71,3.814,8.533,8.533,8.533c4.719,0,8.533-3.823,8.533-8.533V486.4 C512,481.69,508.186,477.867,503.467,477.867z"/> <path d="M409.6,281.6v170.667c0,4.71,3.814,8.533,8.533,8.533s8.533-3.823,8.533-8.533V281.6c0-4.71-3.814-8.533-8.533-8.533 S409.6,276.89,409.6,281.6z"/> <path d="M375.467,59.733v153.6c0,4.71,3.814,8.533,8.533,8.533c4.719,0,8.533-3.823,8.533-8.533v-153.6 c0-4.71-3.814-8.533-8.533-8.533C379.281,51.2,375.467,55.023,375.467,59.733z"/> <path d="M93.867,76.8c4.719,0,8.533-3.823,8.533-8.533s-3.814-8.533-8.533-8.533c-4.71,0-8.533-3.831-8.533-8.533 c0-5.436,6.11-12.954,19.755-17.502c0.503-0.162,51.447-16.631,150.912-16.631c97.63,0,150.477,16.495,151.057,16.683 c13.474,4.207,19.61,11.998,19.61,17.451c0,4.702-3.823,8.533-8.533,8.533c-4.719,0-8.533,3.823-8.533,8.533 s3.814,8.533,8.533,8.533c14.114,0,25.6-11.486,25.6-25.6c0-14.507-12.399-27.75-31.522-33.724C409.984,16.759,356.625,0,256,0 C153.395,0,101.845,16.794,99.703,17.502C80.307,23.97,68.267,36.881,68.267,51.2C68.267,65.314,79.753,76.8,93.867,76.8z"/> <path d="M324.267,59.733c0-3.678-2.347-6.929-5.837-8.098c-1.101-0.367-27.315-8.969-62.43-8.969 c-35.115,0-61.338,8.602-62.43,8.969c-3.49,1.169-5.837,4.42-5.837,8.098c0,14.831-10.769,25.6-25.6,25.6 c-4.719,0-8.533,3.823-8.533,8.533V281.6c0,4.71,3.814,8.533,8.533,8.533h187.733c4.719,0,8.533-3.823,8.533-8.533V93.867 c0-4.71-3.814-8.533-8.533-8.533C334.319,85.333,324.267,75.281,324.267,59.733z M341.333,273.067H170.667V101.615 c17.869-3.345,31.095-17.135,33.673-35.328c8.943-2.347,28.22-6.554,51.661-6.554c23.305,0,42.624,4.198,51.618,6.554 c2.423,18.782,15.317,32.239,33.715,35.405V273.067z"/> <path d="M59.733,290.133c4.719,0,8.533-3.823,8.533-8.533s-3.814-8.533-8.533-8.533c-4.71,0-8.533-3.831-8.533-8.533 c0-4.702,3.823-8.533,8.533-8.533h59.733v196.267c0,4.71,3.814,8.533,8.533,8.533h256c4.719,0,8.533-3.823,8.533-8.533V256 h59.733c4.71,0,8.533,3.831,8.533,8.533c0,4.702-3.823,8.533-8.533,8.533c-4.719,0-8.533,3.823-8.533,8.533 s3.814,8.533,8.533,8.533c14.114,0,25.6-11.486,25.6-25.6s-11.486-25.6-25.6-25.6H384c-4.719,0-8.533,3.823-8.533,8.533V307.2 H136.533v-59.733c0-4.71-3.814-8.533-8.533-8.533H59.733c-14.114,0-25.6,11.486-25.6,25.6S45.619,290.133,59.733,290.133z M136.533,324.267h238.933v119.467H136.533V324.267z"/> <path d="M85.333,281.6v170.667c0,4.71,3.814,8.533,8.533,8.533c4.719,0,8.533-3.823,8.533-8.533V281.6 c0-4.71-3.814-8.533-8.533-8.533C89.148,273.067,85.333,276.89,85.333,281.6z"/> <path d="M119.467,59.733v153.6c0,4.71,3.814,8.533,8.533,8.533s8.533-3.823,8.533-8.533v-153.6c0-4.71-3.814-8.533-8.533-8.533 S119.467,55.023,119.467,59.733z"/> </g> </g> </g> </g>
</svg>